<?xml version="1.0" encoding="UTF-8"?>
<svg id="Capa_1" data-name="Capa 1" xmlns="http://www.w3.org/2000/svg" viewBox="0 0 377.9 377.9">
  <defs>
    <style>
      .cls-1 {
        fill: #fff;
      }

      .cls-2 {
        fill: #e53935;
      }
    </style>
  </defs>
  <rect class="cls-2" width="377.9" height="377.9" rx="73.5" ry="73.5"/>
  <path class="cls-1" d="m289.17,69.07c13.78.33,23.24,13.65,18.53,26.73-8.52,23.67-17.27,47.26-25.93,70.88-15.65,42.64-31.29,85.29-46.95,127.93-5.16,14.06-21.11,18.77-31.83,9.21-2.33-2.08-4.23-4.96-5.52-7.84-11.56-25.65-22.95-51.37-34.34-77.09-.87-1.96-2.06-3.19-4.04-4.06-25.86-11.38-51.69-22.81-77.52-34.28-12.96-5.75-16.65-21.05-7.64-31.36,2.81-3.21,6.48-4.86,10.42-6.29,27.23-9.85,54.42-19.8,81.61-29.73,38.54-14.08,77.06-28.18,115.61-42.22,2.44-.89,5.06-1.27,7.6-1.89Z"/>
</svg>